
  <!--?xml version="1.0" standalone="no"?-->

<svg version="1.0" xmlns="http://www.w3.org/2000/svg" width="1280.000000pt" height="1280.000000pt" viewBox="0 0 1280.000000 1280.000000" preserveAspectRatio="xMidYMid meet" style="" class="">
<metadata>
Created by potrace 1.15, written by Peter Selinger 2001-2017
</metadata>
<g transform="translate(0.000000,1280.000000) scale(0.100000,-0.100000)" fill="#000000" stroke="none">
<path stroke="black" stroke-width="200" fill="none" d="M4615 12293 c-111 -15 -249 -71 -354 -142 -339 -231 -573 -724 -653
-1376 -20 -166 -17 -642 5 -825 83 -676 303 -1248 640 -1666 121 -150 278
-284 427 -367 139 -77 342 -125 476 -113 330 30 620 266 815 662 167 341 253
767 252 1254 -1 391 -54 756 -163 1119 -216 715 -624 1252 -1070 1409 -127 45
-261 61 -375 45z" class="BraKjObp_0"></path>
<path stroke="black" stroke-width="200" fill="none" d="M8277 12244 c-235 -51 -438 -172 -657 -393 -189 -191 -338 -404 -481
-691 -197 -395 -312 -788 -371 -1270 -20 -161 -17 -656 4 -797 86 -569 296
-961 614 -1147 34 -19 104 -50 155 -68 89 -31 102 -32 239 -33 171 0 245 17
405 94 352 170 669 524 911 1016 184 375 302 769 359 1195 22 167 31 543 16
707 -69 762 -373 1265 -835 1383 -95 24 -256 26 -359 4z" class="BraKjObp_1"></path>
<path stroke="black" stroke-width="200" fill="none" d="M2070 9539 c-355 -92 -628 -409 -744 -864 -53 -207 -60 -279 -61
-585 0 -253 3 -301 23 -424 105 -622 362 -1165 736 -1554 274 -284 549 -437
853 -472 274 -32 538 68 734 278 434 464 512 1375 192 2232 -273 731 -786
1274 -1313 1391 -118 26 -317 25 -420 -2z" class="BraKjObp_2"></path>
<path stroke="black" stroke-width="200" fill="none" d="M10315 9300 c-526 -120 -1038 -646 -1319 -1355 -138 -351 -203 -657
-213 -1011 -6 -224 4 -360 42 -550 101 -500 375 -844 754 -946 91 -25 301 -29
396 -9 287 60 531 206 791 472 618 634 922 1730 708 2549 -119 456 -389 764
-746 850 -109 26 -298 26 -413 0z" class="BraKjObp_3"></path>
<path stroke="black" stroke-width="200" fill="none" d="M6059 7295 c-436 -68 -917 -330 -1460 -796 -513 -439 -1146 -1209
-1596 -1939 -347 -562 -705 -1326 -846 -1805 -226 -762 -214 -1309 36 -1675
52 -75 206 -228 308 -305 249 -187 548 -307 904 -361 166 -25 579 -26 785 -1
416 50 709 118 1460 334 201 57 448 126 550 151 184 46 186 47 350 46 238 0
302 -20 845 -257 425 -185 639 -259 880 -303 148 -27 424 -25 562 5 293 62
578 205 833 419 117 98 347 333 418 427 170 225 240 535 212 935 -38 550 -228
1158 -604 1935 -476 982 -1223 1978 -1911 2550 -449 373 -878 593 -1258 644
-106 15 -362 12 -468 -4z 
" class="BraKjObp_4"></path>

</g>
<style data-made-with="vivus-instant">.BraKjObp_0{stroke-dasharray:11380 11382;stroke-dashoffset:11381;}.start .BraKjObp_0{animation:BraKjObp_draw 3000ms linear 0ms forwards;}.BraKjObp_1{stroke-dasharray:11361 11363;stroke-dashoffset:11362;}.start .BraKjObp_1{animation:BraKjObp_draw 3000ms linear 0ms forwards;}.BraKjObp_2{stroke-dasharray:10525 10527;stroke-dashoffset:10526;}.start .BraKjObp_2{animation:BraKjObp_draw 3000ms linear 0ms forwards;}.BraKjObp_3{stroke-dasharray:10519 10521;stroke-dashoffset:10520;}.start .BraKjObp_3{animation:BraKjObp_draw 3000ms linear 0ms forwards;}.BraKjObp_4{stroke-dasharray:57008 57010;stroke-dashoffset:57009;}.start .BraKjObp_4{animation:BraKjObp_draw 3000ms linear 0ms forwards;}.BraKjObp_5{stroke-dasharray:1403 1405;stroke-dashoffset:1404;}.start .BraKjObp_5{animation:BraKjObp_draw 3000ms linear 0ms forwards;}.BraKjObp_6{stroke-dasharray:1415 1417;stroke-dashoffset:1416;}.start .BraKjObp_6{animation:BraKjObp_draw 3000ms linear 0ms forwards;}.BraKjObp_7{stroke-dasharray:854 856;stroke-dashoffset:855;}.start .BraKjObp_7{animation:BraKjObp_draw 3000ms linear 0ms forwards;}.BraKjObp_8{stroke-dasharray:1093 1095;stroke-dashoffset:1094;}.start .BraKjObp_8{animation:BraKjObp_draw 3000ms linear 0ms forwards;}@keyframes BraKjObp_draw{100%{stroke-dashoffset:0;}}@keyframes BraKjObp_fade{0%{stroke-opacity:1;}94.44444444444444%{stroke-opacity:1;}100%{stroke-opacity:0;}}</style></svg>
