<!--?xml version="1.0" standalone="no"?-->

<svg version="1.0" xmlns="http://www.w3.org/2000/svg" width="512.000000pt" height="512.000000pt" viewBox="0 0 512.000000 512.000000" preserveAspectRatio="xMidYMid meet" style="">
<metadata>
Created by potrace 1.16, written by Peter Selinger 2001-2019
</metadata>
<g transform="translate(0.000000,512.000000) scale(0.100000,-0.100000)" fill="#000000" stroke="none">
<path d="M1725 4906 c-242 -53 -426 -227 -529 -500 -68 -179 -90 -437 -53
-601 90 -395 277 -686 513 -797 60 -28 82 -33 169 -36 118 -5 182 10 271 64
76 45 115 84 169 164 102 154 158 350 186 653 15 164 7 409 -17 497 -69 259
-233 469 -423 541 -70 26 -202 33 -286 15z m237 -232 c79 -40 148 -117 201
-225 80 -163 95 -262 78 -509 -25 -351 -88 -558 -205 -676 -81 -80 -176 -103
-275 -65 -67 25 -115 64 -181 147 -98 123 -179 303 -221 488 -56 249 24 567
184 730 93 94 181 134 300 135 54 1 78 -4 119 -25z" class="WXDRHRCS_0"></path>
<path d="M3306 4904 c-145 -28 -331 -145 -423 -265 -221 -288 -271 -584 -176
-1044 58 -282 161 -495 298 -616 93 -83 180 -113 315 -112 166 2 310 64 438
192 226 223 357 624 339 1036 -13 287 -123 536 -304 687 -147 123 -296 160
-487 122z m254 -230 c75 -34 131 -83 186 -160 96 -135 136 -281 136 -494 0
-494 -237 -910 -534 -937 -76 -7 -117 2 -172 38 -47 31 -116 118 -154 194 -66
132 -123 368 -142 590 -10 108 -9 145 3 215 38 220 166 424 324 517 114 66
257 82 353 37z" class="WXDRHRCS_1"></path>
<path d="M560 3257 c-250 -86 -484 -414 -545 -765 -91 -522 242 -1061 656
-1062 342 0 618 389 659 932 18 246 -27 431 -148 609 -169 248 -410 359 -622
286z m243 -223 c183 -90 317 -328 317 -562 0 -311 -124 -643 -284 -761 -67
-50 -105 -64 -172 -63 -185 2 -377 231 -440 526 -61 286 114 713 349 851 86
50 142 52 230 9z" class="WXDRHRCS_2"></path>
<path d="M4535 3273 c-235 -52 -463 -265 -663 -619 -87 -153 -135 -274 -173
-434 -20 -80 -17 -280 4 -360 55 -207 203 -360 400 -411 349 -92 707 176 926
692 76 182 86 230 86 439 0 163 -3 195 -23 265 -66 231 -189 378 -350 420 -53
14 -162 18 -207 8z m186 -228 c94 -49 174 -227 186 -415 10 -167 -17 -282
-117 -485 -116 -236 -268 -409 -414 -470 -174 -73 -358 -1 -438 172 -37 79
-48 203 -28 316 42 237 263 617 454 778 139 118 261 153 357 104z" class="WXDRHRCS_3"></path>
<path d="M2341 2345 c-197 -45 -336 -157 -659 -535 -174 -205 -289 -318 -462
-454 -183 -146 -289 -255 -333 -346 -51 -105 -68 -177 -68 -300 -1 -89 3 -118
27 -189 63 -189 198 -325 388 -388 75 -25 94 -27 251 -28 203 0 287 13 555 91
234 67 263 73 384 84 143 12 297 -3 635 -61 247 -43 323 -52 460 -57 310 -9
502 43 634 174 102 101 148 225 148 398 1 238 -117 373 -451 516 -134 58 -284
139 -343 185 -60 48 -166 182 -297 380 -216 324 -356 458 -540 516 -85 27
-242 34 -329 14z m314 -241 c113 -55 200 -153 391 -435 125 -184 206 -292 265
-351 73 -73 197 -148 404 -245 218 -101 297 -150 340 -211 28 -41 30 -49 29
-135 -2 -149 -44 -228 -153 -286 -92 -48 -180 -64 -366 -64 -146 0 -184 5
-430 48 -351 61 -455 74 -599 75 -164 0 -298 -22 -520 -87 -396 -114 -601
-129 -763 -53 -198 92 -278 330 -181 536 32 69 105 142 304 306 202 165 291
253 509 509 233 272 330 359 455 408 46 17 72 21 155 18 87 -3 108 -7 160 -33z" class="WXDRHRCS_4"></path>
</g>
<style data-made-with="vivus-instant">.WXDRHRCS_0{stroke-dasharray:9101 9103;stroke-dashoffset:9102;animation:WXDRHRCS_draw 2000ms linear 0ms forwards;}.WXDRHRCS_1{stroke-dasharray:9740 9742;stroke-dashoffset:9741;animation:WXDRHRCS_draw 2000ms linear 250ms forwards;}.WXDRHRCS_2{stroke-dasharray:8644 8646;stroke-dashoffset:8645;animation:WXDRHRCS_draw 2000ms linear 500ms forwards;}.WXDRHRCS_3{stroke-dasharray:8893 8895;stroke-dashoffset:8894;animation:WXDRHRCS_draw 2000ms linear 750ms forwards;}.WXDRHRCS_4{stroke-dasharray:17049 17051;stroke-dashoffset:17050;animation:WXDRHRCS_draw 2000ms linear 1000ms forwards;}@keyframes WXDRHRCS_draw{100%{stroke-dashoffset:0;}}@keyframes WXDRHRCS_fade{0%{stroke-opacity:1;}94.44444444444444%{stroke-opacity:1;}100%{stroke-opacity:0;}}</style></svg>
